<?xml version="1.0" encoding="UTF-8" standalone="no"?>
<!-- Created with Inkscape (http://www.inkscape.org/) -->

<svg
   width="16.933334mm"
   height="16.933334mm"
   viewBox="0 0 16.933334 16.933334"
   version="1.1"
   id="svg5"
   xml:space="preserve"
   inkscape:version="1.2.2 (b0a84865, 2022-12-01)"
   sodipodi:docname="drawing.svg"
   xmlns:inkscape="http://www.inkscape.org/namespaces/inkscape"
   xmlns:sodipodi="http://sodipodi.sourceforge.net/DTD/sodipodi-0.dtd"
   xmlns="http://www.w3.org/2000/svg"
   xmlns:svg="http://www.w3.org/2000/svg"><sodipodi:namedview
     id="namedview7"
     pagecolor="#ffffff"
     bordercolor="#000000"
     borderopacity="0.25"
     inkscape:showpageshadow="2"
     inkscape:pageopacity="0.0"
     inkscape:pagecheckerboard="0"
     inkscape:deskcolor="#d1d1d1"
     inkscape:document-units="mm"
     showgrid="false"
     inkscape:zoom="1.9731241"
     inkscape:cx="568.38798"
     inkscape:cy="491.09938"
     inkscape:window-width="1728"
     inkscape:window-height="980"
     inkscape:window-x="0"
     inkscape:window-y="38"
     inkscape:window-maximized="1"
     inkscape:current-layer="layer1" /><defs
     id="defs2" /><g
     inkscape:label="Layer 1"
     inkscape:groupmode="layer"
     id="layer1"
     transform="translate(-108.98977,-110.61401)"><g
       id="g5233"><g
         id="g5074"
         transform="translate(8.8332177e-7,0.00222731)"><path
           id="rect4662-9-1"
           style="fill:none;fill-opacity:0.440273;stroke:#5d78ff;stroke-width:0.7"
           d="m 125.35857,-118.74981 h 1.83476 c 0,0 0.004,8.06928 0,9.41004 h -1.83476 c -0.13046,0 -0.2355,-0.10503 -0.2355,-0.2355 v -8.93904 c 0,-0.13047 0.10504,-0.2355 0.2355,-0.2355 z"
           sodipodi:nodetypes="sccssss"
           transform="rotate(90)" /><path
           id="rect492-0-7-8-9"
           style="fill:none;stroke:#5d78ff;stroke-width:0.718393"
           d="m 109.54614,124.17627 h 8.99731"
           sodipodi:nodetypes="cc" /></g><g
         id="g5070"
         transform="rotate(-49.519599,100.73937,79.923206)"><path
           id="rect4662"
           style="fill:none;fill-opacity:0.440273;stroke:#5d78ff;stroke-width:0.7"
           d="m 83.321641,117.88982 v 9.46577 c 0,0.10322 -0.0831,0.18632 -0.186326,0.18632 h -1.50006 c -0.103225,0 -0.186326,-0.0831 -0.186326,-0.18632 v -9.46577"
           sodipodi:nodetypes="cssssc" /><g
           id="g4798"><rect
             style="fill:none;fill-opacity:0.440273;stroke:#5d78ff;stroke-width:0.7;stroke-dasharray:none;stroke-opacity:1"
             id="rect4662-9"
             width="2.3669477"
             height="6.4831586"
             x="85.093414"
             y="112.02685"
             rx="0.23549969" /><rect
             style="fill:none;fill-opacity:0.440273;stroke:#5d78ff;stroke-width:0.7;stroke-dasharray:none;stroke-opacity:1"
             id="rect4662-9-9"
             width="2.3669477"
             height="6.4831586"
             x="77.310211"
             y="112.02685"
             rx="0.23549969" /></g><path
           id="rect492-0-7-8-9-6"
           style="fill:none;stroke:#5d78ff;stroke-width:0.718393"
           d="m 79.637313,112.483 c 0,0 1.467792,0.34764 2.723143,0.34764 1.25535,0 2.723142,-0.34764 2.723142,-0.34764"
           sodipodi:nodetypes="czc" /><path
           id="rect492-0-7-8-9-6-6"
           style="fill:none;stroke:#5d78ff;stroke-width:0.718393"
           d="m 85.133261,118.05386 c 0,0 -1.467792,-0.34764 -2.723143,-0.34764 -1.25535,0 -2.723142,0.34764 -2.723142,0.34764"
           sodipodi:nodetypes="czc" /></g></g></g></svg>
