<?xml version="1.0" encoding="UTF-8" standalone="no"?>
<!-- Created with Inkscape (http://www.inkscape.org/) -->

<svg
   width="16.933327mm"
   height="16.933334mm"
   viewBox="0 0 16.933327 16.933334"
   version="1.1"
   id="svg5"
   xml:space="preserve"
   xmlns="http://www.w3.org/2000/svg"
   xmlns:svg="http://www.w3.org/2000/svg"><defs
     id="defs2" /><g
     id="layer1"
     transform="translate(-108.47084,-134.3744)"><g
       id="g4776"
       transform="translate(26.932769,0.42773046)"><path
         style="fill:none;fill-opacity:0.440273;stroke:#5d78ff;stroke-width:1.20522;stroke-dasharray:none"
         id="path3671"
         d="m 94.554167,144.7716 c -0.556399,0.48873 -1.427043,-0.10161 -2.107236,0.19126 -0.680192,0.29287 -0.849646,1.33105 -1.58705,1.39939 -0.737404,0.0684 -1.094779,-0.92099 -1.817213,-1.08386 -0.722433,-0.16287 -1.469746,0.57743 -2.106492,0.19929 -0.636745,-0.37815 -0.344347,-1.3886 -0.833076,-1.945 -0.488729,-0.5564 -1.528454,-0.39675 -1.821326,-1.07694 -0.292872,-0.68019 0.537614,-1.3258 0.469268,-2.0632 -0.06835,-0.73741 -1.003344,-1.21938 -0.840476,-1.94181 0.162869,-0.72244 1.214226,-0.7566 1.592367,-1.39334 0.378141,-0.63675 -0.09499,-1.57625 0.461409,-2.06498 0.556399,-0.48873 1.427043,0.10161 2.107236,-0.19126 0.680192,-0.29288 0.849646,-1.33105 1.58705,-1.3994 0.737404,-0.0683 1.094779,0.921 1.817212,1.08387 0.722433,0.16287 1.469747,-0.57743 2.106493,-0.19929 0.636745,0.37814 0.344347,1.3886 0.833076,1.945 0.488728,0.5564 1.528454,0.39674 1.821326,1.07694 0.292872,0.68019 -0.537615,1.3258 -0.469268,2.0632 0.06835,0.7374 1.003344,1.21938 0.840476,1.94181 -0.162869,0.72243 -1.214226,0.75659 -1.592367,1.39334 -0.378142,0.63675 0.09499,1.57625 -0.461409,2.06498 z"
         transform="matrix(0.59194662,0,0,0.56988017,39.837025,63.469811)" /><circle
         style="fill:none;fill-opacity:0.440273;stroke:#5d78ff;stroke-width:0.386111;stroke-dasharray:none"
         id="path3725"
         cx="93.265686"
         cy="143.18579"
         r="2.2796741" /><g
         id="g4769"
         transform="translate(-0.11676896)"><path
           id="rect3811-4-4"
           style="fill:none;fill-opacity:0.440273;stroke:#5d78ff;stroke-width:0.7"
           d="m 92.664683,146.35794 -1.410688,4.06777 c -0.0272,0.0785 -0.154541,0.14438 -0.19879,0.074 l -0.851073,-1.35322 -1.580244,0.24157 c -0.08217,0.0126 -0.115277,-0.12671 -0.07404,-0.19879 l 2.136837,-3.73575" /><path
           id="rect3811-4-4-5"
           style="fill:none;fill-opacity:0.440273;stroke:#5d78ff;stroke-width:0.7"
           d="m 94.100227,146.35794 1.410688,4.06777 c 0.0272,0.0785 0.154541,0.14438 0.19879,0.074 l 0.851073,-1.35322 1.580244,0.24157 c 0.08217,0.0126 0.115277,-0.12671 0.07404,-0.19879 l -2.136837,-3.73575" /></g></g><g
       id="g5227"><path
         id="rect492-0-8"
         style="fill:none;stroke:#5d78ff;stroke-width:0.7;stroke-dasharray:none"
         d="m 114.84592,148.27036 h -6.02508 V 134.7244 h 8.44145 l 2.81381,2.92857 v 1.38092" /><path
         id="rect4887"
         style="fill:none;fill-opacity:0.440273;stroke:#5d78ff;stroke-width:0.7"
         d="m 120.11252,137.50623 h -2.81824 v -2.57319" /><path
         id="rect4992"
         style="fill:none;fill-opacity:0.440273;stroke:#5d78ff;stroke-width:0.35;stroke-dasharray:none"
         d="m 110.30607,136.12781 h 2.9096 v 2.93849 h -2.9096 z" /><circle
         id="path4995"
         style="fill:#000000;stroke:#5d78ff;stroke-width:0.264583"
         cx="114.08057"
         cy="136.07358"
         r="0.002544434" /><path
         style="fill:none;fill-opacity:0.440273;stroke:#5d78ff;stroke-width:0.35;stroke-dasharray:none"
         d="m 114.09501,136.12781 h 2.25273 v 0"
         id="path4999" /><path
         style="fill:none;fill-opacity:0.440273;stroke:#5d78ff;stroke-width:0.35;stroke-dasharray:none"
         d="m 114.09502,137.59635 h 2.25273 v 0"
         id="path4999-3" /><path
         style="fill:none;fill-opacity:0.440273;stroke:#5d78ff;stroke-width:0.35;stroke-dasharray:none"
         d="m 114.09502,139.0649 h 5.01088 v 0"
         id="path4999-2" /><path
         style="fill:none;fill-opacity:0.440273;stroke:#5d78ff;stroke-width:0.35;stroke-dasharray:none"
         d="m 110.13107,140.55728 h 6.46938 v 0"
         id="path4999-2-6" /><path
         style="fill:none;fill-opacity:0.440273;stroke:#5d78ff;stroke-width:0.35;stroke-dasharray:none"
         d="m 110.13107,142.0602 h 5.63183 v 0"
         id="path4999-2-6-8" /><path
         style="fill:none;fill-opacity:0.440273;stroke:#5d78ff;stroke-width:0.35;stroke-dasharray:none"
         d="m 110.13107,143.54276 h 5.21305 v 0"
         id="path4999-2-6-5" /><path
         style="fill:none;fill-opacity:0.440273;stroke:#5d78ff;stroke-width:0.35;stroke-dasharray:none"
         d="m 110.13107,145.0183 h 5.21305 v 0"
         id="path4999-2-6-5-3" /><path
         style="fill:none;fill-opacity:0.440273;stroke:#5d78ff;stroke-width:0.35;stroke-dasharray:none"
         d="m 110.13107,146.49967 h 5.55962 v 0"
         id="path4999-2-6-5-3-7" /></g></g></svg>
