<?xml version="1.0" encoding="UTF-8" standalone="no"?>
<!-- Created with Inkscape (http://www.inkscape.org/) -->

<svg
   width="16.933334mm"
   height="16.933334mm"
   viewBox="0 0 16.933334 16.933334"
   version="1.1"
   id="svg5"
   xml:space="preserve"
   inkscape:version="1.2.2 (b0a84865, 2022-12-01)"
   sodipodi:docname="drawing.svg"
   xmlns:inkscape="http://www.inkscape.org/namespaces/inkscape"
   xmlns:sodipodi="http://sodipodi.sourceforge.net/DTD/sodipodi-0.dtd"
   xmlns="http://www.w3.org/2000/svg"
   xmlns:svg="http://www.w3.org/2000/svg"><sodipodi:namedview
     id="namedview7"
     pagecolor="#ffffff"
     bordercolor="#000000"
     borderopacity="0.25"
     inkscape:showpageshadow="2"
     inkscape:pageopacity="0.0"
     inkscape:pagecheckerboard="0"
     inkscape:deskcolor="#d1d1d1"
     inkscape:document-units="mm"
     showgrid="false"
     inkscape:zoom="2.6474743"
     inkscape:cx="477.24731"
     inkscape:cy="242.87299"
     inkscape:window-width="1728"
     inkscape:window-height="980"
     inkscape:window-x="0"
     inkscape:window-y="38"
     inkscape:window-maximized="1"
     inkscape:current-layer="layer1" /><defs
     id="defs2" /><g
     inkscape:label="Layer 1"
     inkscape:groupmode="layer"
     id="layer1"
     transform="translate(-106.07411,-78.122518)"><rect
       style="fill:none;fill-opacity:0.440273;stroke:none;stroke-width:0.863629;stroke-dasharray:none;stroke-opacity:1"
       id="rect492-5-4-1"
       width="16.933332"
       height="16.933332"
       x="-123.00745"
       y="-95.055847"
       transform="scale(-1)" /><g
       id="g4108"
       transform="translate(-1.0557751,0.66086193)"><path
         id="path3690"
         style="fill:none;fill-opacity:0.440273;stroke:#5d78ff;stroke-width:0.7;stroke-dasharray:none"
         d="m 116.08118,84.267905 a 3.3115281,3.3115281 0 0 1 -3.31153,3.311528 3.3115281,3.3115281 0 0 1 -3.31153,-3.311528 3.3115281,3.3115281 0 0 1 3.31153,-3.311528 3.3115281,3.3115281 0 0 1 3.31153,3.311528 z" /><path
         id="rect492-0-0"
         style="fill:none;stroke:#5d78ff;stroke-width:0.7"
         d="m 109.98402,87.752722 c 0,0 1.39332,0.90552 2.74987,0.90552 1.35655,0 2.74987,-0.90552 2.74987,-0.90552 1.63928,1.208661 2.59476,2.775509 2.4255,4.931501 H 107.6232 c -0.2342,-2.015159 0.70014,-3.60539 2.36082,-4.931501 z"
         sodipodi:nodetypes="czcccc" /><path
         id="path3690-3-7"
         style="fill:none;fill-opacity:0.440273;stroke:#5d78ff;stroke-width:0.7;stroke-dasharray:none"
         d="m 115.46628,81.038249 c 0.5368,-1.104512 1.66956,-1.865834 2.98013,-1.865833 1.82891,10e-7 3.31153,1.482621 3.31153,3.311528 0,1.828907 -1.48262,3.311527 -3.31153,3.311528 -0.64221,0 -1.24172,-0.182808 -1.74933,-0.499226"
         sodipodi:nodetypes="csssc" /><path
         id="rect492-0-0-8-8"
         style="fill:none;stroke:#5d78ff;stroke-width:0.7"
         d="m 116.23539,86.286198 c 0.5314,0.261006 1.35997,0.588082 2.17526,0.588082 1.35655,0 2.74987,-0.905519 2.74987,-0.905519 1.63928,1.208659 2.59476,2.775509 2.4255,4.931509 h -5.0185"
         sodipodi:nodetypes="csccc" /></g></g></svg>
