<?xml version="1.0" encoding="UTF-8" standalone="no"?>
<!-- Created with Inkscape (http://www.inkscape.org/) -->

<svg
   width="17.007954mm"
   height="16.933334mm"
   viewBox="0 0 17.007954 16.933334"
   version="1.1"
   id="svg5"
   xml:space="preserve"
   inkscape:version="1.2.2 (b0a84865, 2022-12-01)"
   sodipodi:docname="source.svg"
   xmlns:inkscape="http://www.inkscape.org/namespaces/inkscape"
   xmlns:sodipodi="http://sodipodi.sourceforge.net/DTD/sodipodi-0.dtd"
   xmlns="http://www.w3.org/2000/svg"
   xmlns:svg="http://www.w3.org/2000/svg"><sodipodi:namedview
     id="namedview7"
     pagecolor="#ffffff"
     bordercolor="#000000"
     borderopacity="0.25"
     inkscape:showpageshadow="2"
     inkscape:pageopacity="0.0"
     inkscape:pagecheckerboard="0"
     inkscape:deskcolor="#d1d1d1"
     inkscape:document-units="mm"
     showgrid="false"
     inkscape:zoom="2.7072521"
     inkscape:cx="349.6165"
     inkscape:cy="743.92776"
     inkscape:window-width="1728"
     inkscape:window-height="980"
     inkscape:window-x="0"
     inkscape:window-y="38"
     inkscape:window-maximized="1"
     inkscape:current-layer="layer1" /><defs
     id="defs2" /><g
     inkscape:label="Layer 1"
     inkscape:groupmode="layer"
     id="layer1"
     transform="translate(-54.987531,-182.69107)"><g
       id="g8287"
       transform="matrix(0.78628194,0,0,0.78628194,13.419248,29.713093)"
       style="stroke-width:0.890266;stroke-dasharray:none"><path
         id="path3690-3-3"
         style="fill:none;fill-opacity:0.440273;stroke:#5d78ff;stroke-width:0.890266;stroke-dasharray:none"
         d="m 61.80458,205.79325 c 0,1.8289 -1.48262,3.31153 -3.31153,3.31152 -1.82891,1e-5 -3.31153,-1.48262 -3.31153,-3.31152 0,-1.82891 1.48262,-3.31153 3.31153,-3.31153 1.82891,0 3.31153,1.48262 3.31153,3.31153 z"
         sodipodi:nodetypes="sssss" /><path
         id="rect492-0-0-8-9"
         style="fill:none;stroke:#5d78ff;stroke-width:0.890266;stroke-dasharray:none"
         d="m 55.70742,209.27806 c 0,0 1.39332,0.90552 2.74987,0.90552 1.35655,0 2.74987,-0.90552 2.74987,-0.90552 1.63928,1.20866 2.59476,2.77551 2.4255,4.93151 H 53.3466 c -0.2342,-2.01516 0.70014,-3.6054 2.36082,-4.93151 z"
         sodipodi:nodetypes="czcccc" /></g><path
       style="fill:none;fill-opacity:0.440273;stroke:#5d78ff;stroke-width:0.7;stroke-dasharray:none"
       d="m 55.062151,199.27439 h 16.933337 v 0"
       id="path4999-2-5-0-50-6" /><g
       id="g8283"
       transform="translate(-15.631021,-17.353146)"><g
         id="g8237"
         transform="translate(-63.227675,0.40221167)"><path
           style="fill:none;fill-opacity:0.440273;stroke:#5d78ff;stroke-width:0.7;stroke-dasharray:none"
           d="m 144.94691,210.44761 -1.53024,1.45154"
           id="path4999-2-5-0-50-6-0-9"
           sodipodi:nodetypes="cc" /><path
           style="fill:none;fill-opacity:0.440273;stroke:#5d78ff;stroke-width:0.7;stroke-dasharray:none"
           d="m 143.34584,201.9222 v 14.09016 0"
           id="path4999-2-5-0-50-6-0"
           sodipodi:nodetypes="ccc" /><path
           id="path8099"
           style="fill:none;fill-opacity:0.440273;stroke:#5d78ff;stroke-width:0.814808;stroke-dasharray:none"
           inkscape:transform-center-x="0.06610571"
           inkscape:transform-center-y="-0.095315905"
           transform="matrix(0.93829412,0,0,0.78658607,11.137336,46.76926)"
           d="m 146.14166,202.13007 c 0,0 0.49353,-0.29792 0.9671,0.21622 0.47357,0.51416 0.5376,1.16267 0.5376,1.16267 0,0 0.87943,0.3196 0.85073,1.01803 -0.0287,0.69844 -0.49856,1.37418 -0.49856,1.37418 0,0 0.3425,1.27068 -0.1716,1.74426 -0.51416,0.47357 -1.3771,0.35351 -1.3771,0.35351 0,0 -0.96673,0.80872 -1.66517,0.78001 -0.69843,-0.0287 -1.45207,-0.67924 -1.45207,-0.67924 0,0 -0.58261,0.23607 -1.2455,-0.43938 -0.66288,-0.67546 -0.13222,-1.43822 -0.13222,-1.43822"
           sodipodi:nodetypes="cscscscsczc" /><path
           id="path8099-9"
           style="fill:none;fill-opacity:0.440273;stroke:#5d78ff;stroke-width:0.7;stroke-dasharray:none"
           inkscape:transform-center-x="0.093586516"
           inkscape:transform-center-y="-0.13872255"
           d="m 139.42197,205.26255 c 0,0 -0.88388,-0.78311 -0.87592,-1.80519 0.008,-1.02207 1.05744,-1.24078 1.05744,-1.24078 0,0 0.0838,-0.71604 0.76683,-1.25818 0.68301,-0.54214 1.50599,-0.2939 1.50599,-0.2939 0,0 0.60161,-0.70423 1.5294,-0.67137 0.92779,0.0329 1.51726,0.7576 1.51726,0.7576 0,0 0.7993,-0.30412 1.42839,0.28448 0.62907,0.5886 0.71413,1.33101 0.71413,1.33101 0,0 1.16822,0.36587 1.1301,1.16542 -0.0381,0.79958 -0.66229,1.57315 -0.66229,1.57315 0,0 0.45498,1.45467 -0.22794,1.99681 h -3e-5 c -0.683,0.54215 -1.82931,0.40471 -1.82931,0.40471 0,0 -1.28419,0.92582 -2.21198,0.89295 -0.9278,-0.0329 -1.63836,-0.58764 -1.63836,-0.58764"
           sodipodi:nodetypes="czcscscscscsscsc" /></g></g><path
       style="fill:none;fill-opacity:0.440273;stroke:#5d78ff;stroke-width:0.7;stroke-dasharray:none"
       d="m 66.605484,187.46511 -2.015216,1.98501"
       id="path4999-2-5-0-50-6-0-9-5-1"
       sodipodi:nodetypes="cc" /><path
       style="fill:none;fill-opacity:0.440273;stroke:#5d78ff;stroke-width:0.7;stroke-dasharray:none"
       d="m 62.16539,186.25266 2.160708,2.03351"
       id="path4999-2-5-0-50-6-0-9-5-1-7"
       sodipodi:nodetypes="cc" /></g></svg>
